<svg width="416" height="62" viewBox="0 0 416 62" fill="none" xmlns="http://www.w3.org/2000/svg" xmlns:xlink="http://www.w3.org/1999/xlink">
<path d="M0.007,61.561L28.335,19.549L28.694,19.029L5.621,19.029L5.621,0.448C5.621,0.448 64.881,0.428 66.028,0.448L65.597,1.103C61.41,1.947 56.011,2.028 52.484,0.495C52.34,0.434 48.942,1.34 48.884,1.353C51.358,2.238 53.767,3.116 56.047,3.508C58.786,3.974 61.525,3.859 64.02,3.454L63.102,4.825C59.862,5.23 56.857,5.108 54.341,4.528C51.803,3.94 49.401,2.94 46.798,2.028C46.798,2.028 43.995,3.19 44.267,3.129C48.454,4.271 52.391,6.196 56.054,6.817C57.94,7.135 59.819,7.189 61.618,7.047L60.758,8.337C58.413,8.452 56.248,8.269 54.348,7.837C50.62,6.973 47.113,5.048 42.424,4.102C42.424,4.102 39.7,5.629 39.922,5.642C45.844,6.108 51.114,9.289 56.054,10.127C57.166,10.316 58.27,10.411 59.36,10.424L58.528,11.667C57.029,11.62 55.624,11.444 54.341,11.147C49.229,9.965 44.733,7.033 38.115,6.898L35.556,9.1C36.423,8.972 37.319,8.898 38.244,8.884C44.575,8.803 50.677,12.525 56.04,13.436C56.434,13.504 56.822,13.558 57.216,13.599L56.399,14.814C55.682,14.727 54.993,14.605 54.334,14.456C49.035,13.234 44.396,10.127 37.362,10.208C36.237,10.221 35.147,10.37 34.093,10.62L33.154,11.674L31.863,13.315C33.806,12.646 35.936,12.221 38.244,12.194C44.253,12.113 50.053,15.47 55.215,16.584L54.427,17.786C54.427,17.786 54.362,17.773 54.334,17.766C49.035,16.537 44.396,13.436 37.362,13.518C34.932,13.545 32.659,14.2 30.58,15.199L29.934,16.287L29.124,17.793C31.734,16.476 34.788,15.551 38.244,15.503C43.529,15.436 48.662,18.023 53.337,19.407L52.548,20.596C47.952,19.184 43.6,16.76 37.362,16.834C33.957,16.874 30.859,18.131 28.192,19.86L27.805,20.86L27.403,22.069C30.365,20.258 34,18.874 38.244,18.82C42.855,18.759 47.35,20.724 51.523,22.143L50.72,23.305C46.762,21.9 42.769,20.083 37.362,20.144C33.362,20.191 29.784,21.92 26.83,24.122L26.586,25.196L26.443,26C29.562,23.892 33.526,22.197 38.244,22.129C42.202,22.075 46.067,23.514 49.723,24.824L48.956,25.973C45.543,24.716 41.965,23.406 37.362,23.46C33.06,23.507 29.253,25.506 26.17,27.938L26.106,28.688L26.048,29.579C29.225,27.357 33.326,25.513 38.237,25.446C41.557,25.405 44.812,26.405 47.931,27.506L47.156,28.64C44.267,27.621 41.162,26.729 37.355,26.776C32.982,26.83 29.103,28.897 25.998,31.389L26.02,32.234L26.063,32.889C29.232,30.667 33.326,28.83 38.23,28.769C40.911,28.735 43.557,29.383 46.124,30.214L45.35,31.356C42.962,30.613 40.381,30.059 37.348,30.093C33.075,30.14 29.282,32.119 26.213,34.53L26.285,35.172L26.414,35.955C29.54,33.848 33.498,32.146 38.23,32.078C40.273,32.051 42.295,32.423 44.274,32.97L43.485,34.145C41.621,33.679 39.607,33.375 37.348,33.409C33.304,33.456 29.691,35.226 26.708,37.462C26.708,37.462 26.866,38.184 26.894,38.272C26.923,38.36 27.059,38.853 27.059,38.853C30.071,36.941 33.82,35.456 38.23,35.402C39.621,35.381 41.005,35.55 42.374,35.827L41.542,37.056C40.238,36.833 38.847,36.705 37.348,36.725C33.641,36.766 30.293,38.259 27.475,40.224C27.475,40.224 27.662,40.751 27.69,40.852C27.719,40.954 27.97,41.615 27.97,41.615C30.823,39.974 34.258,38.758 38.237,38.711C38.947,38.704 39.664,38.745 40.374,38.819L39.521,40.109C38.825,40.048 38.101,40.021 37.355,40.035C34.086,40.075 31.096,41.237 28.493,42.865C28.493,42.865 28.766,43.473 28.809,43.567C28.845,43.662 29.16,44.29 29.16,44.29C31.756,42.98 34.796,42.068 38.237,42.021L37.793,42.689L43.399,42.676C47.866,43.777 52.147,45.911 56.033,46.573C58.478,46.985 60.901,46.945 63.167,46.641L63.167,47.883C59.897,48.302 56.865,48.187 54.326,47.6C49.028,46.37 44.389,43.27 37.355,43.345C34.602,43.378 32.049,44.209 29.762,45.438C29.762,45.438 30.071,45.945 30.128,46.067C30.185,46.188 30.644,46.924 30.644,46.924C32.896,45.986 35.434,45.371 38.237,45.337C44.568,45.256 50.67,48.978 56.033,49.889C58.485,50.302 60.908,50.261 63.181,49.95L63.167,51.193C59.897,51.619 56.865,51.49 54.326,50.903C49.028,49.673 44.389,46.573 37.355,46.654C35.226,46.681 33.211,47.181 31.347,47.978C31.347,47.978 31.713,48.518 31.82,48.66C31.928,48.809 32.508,49.545 32.508,49.545C34.272,49.005 36.179,48.66 38.237,48.633C44.568,48.552 50.67,52.281 56.033,53.186C58.478,53.598 60.894,53.557 63.167,53.246L63.167,54.489C59.897,54.908 56.865,54.786 54.326,54.205C49.028,52.976 44.389,49.869 37.355,49.957C35.971,49.977 34.638,50.193 33.362,50.565C33.362,50.565 33.985,51.261 34.007,51.294C34.028,51.321 34.925,52.281 34.925,52.281C35.979,52.091 37.097,51.963 38.237,51.95C44.568,51.869 50.67,55.59 56.033,56.502C58.478,56.914 60.894,56.873 63.167,56.563L63.167,57.812C59.89,58.224 56.865,58.109 54.326,57.522C49.028,56.293 44.389,53.186 37.355,53.267C36.918,53.273 36.48,53.3 36.05,53.341C36.05,53.341 36.853,54.07 36.904,54.104C36.947,54.131 38.345,55.252 38.345,55.252C44.633,55.212 50.691,58.9 56.033,59.805C58.478,60.217 60.894,60.176 63.167,59.866L63.167,61.108C59.897,61.527 56.865,61.406 54.326,60.818C49.852,59.785 45.852,57.414 40.496,56.745C40.496,56.745 42.639,58.001 42.776,58.076C42.912,58.15 46.059,59.697 47.307,60.082C48.562,60.467 52.778,61.554 52.857,61.554C52.935,61.554 0,61.554 0,61.554Z" fill="#EF3E42"/>
<path d="M54.061,42.683C54.786,42.879 55.395,43.014 56.098,43.129C58.528,43.541 60.93,43.5 63.182,43.203L63.182,44.446C59.934,44.858 56.915,44.736 54.391,44.149C52.792,43.777 51.251,43.237 49.695,42.663L54.069,42.683L54.061,42.683Z" fill="#EF3E42"/>
<path d="M188.898,0.44L161.592,42.751L186.173,42.751L186.173,61.56L125.345,61.56L152.651,18.998C150.465,18.998 130.738,18.998 130.738,18.998L130.738,0.44L188.926,0.44L188.898,0.44Z" fill="#00529B"/>
<path d="M238.883,19.929C246.269,19.929 250.848,25.205 250.848,31.492C250.848,38.243 245.914,42.89 238.883,42.89C231.851,42.89 226.917,38.243 226.917,31.492C226.917,25.205 231.497,19.929 238.883,19.929ZM238.883,0.44C219.413,0.44 203.459,12.549 203.459,31.164C203.459,49.779 219.354,61.56 238.883,61.56C258.412,61.56 274.306,50.189 274.306,31.164C274.306,12.139 258.323,0.44 238.883,0.44Z" fill="#00529B"/>
<path d="M294.288,0.44L314.546,0.44L332.239,32.213L332.239,0.44L352.419,0.44L352.419,61.56L332.239,61.56L314.468,30.696L314.468,61.56L294.288,61.56L294.288,0.44Z" fill="#00529B"/>
<path d="M394.201,0.44L374.219,0.44L374.219,61.56L394.201,61.56L394.201,0.44Z" fill="#00529B"/>
<path d="M416,7.398C416,11.303 412.818,14.41 408.747,14.41C404.676,14.41 401.467,11.303 401.467,7.398C401.467,3.494 404.703,0.44 408.801,0.44C412.899,0.44 416,3.494 416,7.398ZM403.274,7.398C403.274,10.506 405.646,12.949 408.801,12.949C411.875,13.003 414.194,10.479 414.194,7.425C414.194,4.371 411.875,1.821 408.72,1.821C405.566,1.821 403.301,4.318 403.301,7.372M407.642,10.984L405.997,10.984L405.997,4.025C406.644,3.946 407.561,3.813 408.72,3.813C410.068,3.813 410.661,4.025 411.147,4.371C411.578,4.663 411.875,5.168 411.875,5.858C411.875,6.708 411.228,7.266 410.419,7.505L410.419,7.584C411.12,7.797 411.443,8.355 411.659,9.284C411.875,10.347 412.037,10.718 412.171,10.984L410.446,10.984C410.23,10.718 410.095,10.134 409.88,9.284C409.745,8.567 409.313,8.222 408.424,8.222L407.642,8.222L407.642,10.984ZM407.696,7.08L408.477,7.08C409.394,7.08 410.122,6.788 410.122,6.071C410.122,5.433 409.637,5.008 408.612,5.008C408.181,5.008 407.884,5.061 407.696,5.088L407.696,7.08Z" fill="#00529B"/>
</svg>
