<svg width="50" height="44" viewBox="0 0 50 44" fill="none" xmlns="http://www.w3.org/2000/svg" xmlns:xlink="http://www.w3.org/1999/xlink">
<path d="M4,36.449C2.343,36.449 1,37.792 1,39.449C1,41.105 2.343,42.449 4,42.449L4,36.449ZM46,42.449C47.657,42.449 49,41.105 49,39.449C49,37.792 47.657,36.449 46,36.449L46,42.449ZM4,18C2.343,18 1,19.343 1,21C1,22.657 2.343,24 4,24L4,18ZM46,24C47.657,24 49,22.657 49,21C49,19.343 47.657,18 46,18L46,24ZM4,-0.448C2.343,-0.448 1,0.895 1,2.552C1,4.209 2.343,5.552 4,5.552L4,-0.448ZM46,5.552C47.657,5.552 49,4.209 49,2.552C49,0.895 47.657,-0.448 46,-0.448L46,5.552ZM4,42.449L46,42.449L46,36.449L4,36.449L4,42.449ZM4,24L46,24L46,18L4,18L4,24ZM4,5.552L46,5.552L46,-0.448L4,-0.448L4,5.552Z" fill="#00529B"/>
</svg>
