<svg width="56" height="56" viewBox="0 0 56 56" fill="none" xmlns="http://www.w3.org/2000/svg" xmlns:xlink="http://www.w3.org/1999/xlink">
<path d="M2.5,26C1.395,26 0.5,26.895 0.5,28C0.5,29.105 1.395,30 2.5,30L2.5,26ZM11,30C12.105,30 13,29.105 13,28C13,26.895 12.105,26 11,26L11,30ZM30,2.5C30,1.395 29.105,0.5 28,0.5C26.895,0.5 26,1.395 26,2.5L30,2.5ZM26,11C26,12.105 26.895,13 28,13C29.105,13 30,12.105 30,11L26,11ZM14.686,17.514C15.467,18.295 16.733,18.295 17.514,17.514C18.295,16.733 18.295,15.467 17.514,14.686L14.686,17.514ZM11.281,8.452C10.5,7.671 9.234,7.671 8.452,8.452C7.671,9.233 7.671,10.5 8.452,11.281L11.281,8.452ZM38.486,14.686C37.705,15.467 37.705,16.733 38.486,17.514C39.267,18.295 40.533,18.295 41.314,17.514L38.486,14.686ZM47.548,11.281C48.329,10.5 48.329,9.233 47.548,8.452C46.766,7.671 45.5,7.671 44.719,8.452L47.548,11.281ZM17.514,41.314C18.295,40.533 18.295,39.267 17.514,38.486C16.733,37.705 15.467,37.705 14.686,38.486L17.514,41.314ZM8.452,44.719C7.671,45.5 7.671,46.766 8.452,47.548C9.234,48.329 10.5,48.329 11.281,47.548L8.452,44.719ZM28,28L28.632,26.103C27.914,25.863 27.121,26.05 26.586,26.586C26.05,27.121 25.863,27.914 26.103,28.632L28,28ZM53.5,36.5L54.394,38.289C55.118,37.927 55.552,37.165 55.495,36.358C55.438,35.551 54.9,34.858 54.132,34.603L53.5,36.5ZM42.167,42.167L41.272,40.378C40.885,40.571 40.571,40.885 40.378,41.272L42.167,42.167ZM36.5,53.5L34.603,54.132C34.858,54.9 35.551,55.438 36.358,55.495C37.165,55.552 37.927,55.118 38.289,54.394L36.5,53.5ZM2.5,30L11,30L11,26L2.5,26L2.5,30ZM26,2.5L26,11L30,11L30,2.5L26,2.5ZM17.514,14.686L11.281,8.452L8.452,11.281L14.686,17.514L17.514,14.686ZM41.314,17.514L47.548,11.281L44.719,8.452L38.486,14.686L41.314,17.514ZM14.686,38.486L8.452,44.719L11.281,47.548L17.514,41.314L14.686,38.486ZM27.368,29.897L52.868,38.397L54.132,34.603L28.632,26.103L27.368,29.897ZM52.606,34.711L41.272,40.378L43.061,43.956L54.394,38.289L52.606,34.711ZM40.378,41.272L34.711,52.606L38.289,54.394L43.956,43.061L40.378,41.272ZM38.397,52.868L29.897,27.368L26.103,28.632L34.603,54.132L38.397,52.868Z" fill="#004A93"/>
</svg>
