<svg width="36" height="38" viewBox="0 0 36 38" fill="none" xmlns="http://www.w3.org/2000/svg" xmlns:xlink="http://www.w3.org/1999/xlink">
<path d="M10.5,15C10.102,15 9.721,15.158 9.439,15.439C9.158,15.721 9,16.102 9,16.5C9,16.898 9.158,17.279 9.439,17.561C9.721,17.842 10.102,18 10.5,18C10.898,18 11.279,17.842 11.561,17.561C11.842,17.279 12,16.898 12,16.5C12,16.102 11.842,15.721 11.561,15.439C11.279,15.158 10.898,15 10.5,15ZM9,27.5C9,27.102 9.158,26.721 9.439,26.439C9.721,26.158 10.102,26 10.5,26C10.898,26 11.279,26.158 11.561,26.439C11.842,26.721 12,27.102 12,27.5C12,27.898 11.842,28.279 11.561,28.561C11.279,28.842 10.898,29 10.5,29C10.102,29 9.721,28.842 9.439,28.561C9.158,28.279 9,27.898 9,27.5ZM0,7.5C0,5.776 0.685,4.123 1.904,2.904C3.123,1.685 4.776,1 6.5,1L29.5,1C31.224,1 32.877,1.685 34.096,2.904C35.315,4.123 36,5.776 36,7.5L36,30.5C36,32.224 35.315,33.877 34.096,35.096C32.877,36.315 31.224,37 29.5,37L6.5,37C4.776,37 3.123,36.315 1.904,35.096C0.685,33.877 0,32.224 0,30.5L0,7.5ZM6,16.5C6,17.091 6.116,17.676 6.343,18.222C6.569,18.768 6.9,19.264 7.318,19.682C7.736,20.1 8.232,20.431 8.778,20.657C9.324,20.884 9.909,21 10.5,21C11.091,21 11.676,20.884 12.222,20.657C12.768,20.431 13.264,20.1 13.682,19.682C14.1,19.264 14.431,18.768 14.657,18.222C14.884,17.676 15,17.091 15,16.5C15,15.307 14.526,14.162 13.682,13.318C12.838,12.474 11.693,12 10.5,12C9.307,12 8.162,12.474 7.318,13.318C6.474,14.162 6,15.307 6,16.5ZM10.5,23C9.307,23 8.162,23.474 7.318,24.318C6.474,25.162 6,26.307 6,27.5C6,28.693 6.474,29.838 7.318,30.682C8.162,31.526 9.307,32 10.5,32C11.693,32 12.838,31.526 13.682,30.682C14.526,29.838 15,28.693 15,27.5C15,26.307 14.526,25.162 13.682,24.318C12.838,23.474 11.693,23 10.5,23ZM18,16.5C18,17.328 18.672,18 19.5,18L28.5,18C28.898,18 29.279,17.842 29.561,17.561C29.842,17.279 30,16.898 30,16.5C30,16.102 29.842,15.721 29.561,15.439C29.279,15.158 28.898,15 28.5,15L19.5,15C19.102,15 18.721,15.158 18.439,15.439C18.158,15.721 18,16.102 18,16.5ZM19.5,26C19.102,26 18.721,26.158 18.439,26.439C18.158,26.721 18,27.102 18,27.5C18,27.898 18.158,28.279 18.439,28.561C18.721,28.842 19.102,29 19.5,29L28.5,29C28.898,29 29.279,28.842 29.561,28.561C29.842,28.279 30,27.898 30,27.5C30,27.102 29.842,26.721 29.561,26.439C29.279,26.158 28.898,26 28.5,26L19.5,26ZM6,7.5C6,8.328 6.672,9 7.5,9L28.5,9C28.898,9 29.279,8.842 29.561,8.561C29.842,8.279 30,7.898 30,7.5C30,7.102 29.842,6.721 29.561,6.439C29.279,6.158 28.898,6 28.5,6L7.5,6C7.102,6 6.721,6.158 6.439,6.439C6.158,6.721 6,7.102 6,7.5Z" fill="#00529B"/>
</svg>
