<svg width="36" height="38" viewBox="0 0 36 38" fill="none" xmlns="http://www.w3.org/2000/svg" xmlns:xlink="http://www.w3.org/1999/xlink">
<path d="M35.666,27.46C35.346,29.895 34.15,32.13 32.302,33.747C30.454,35.365 28.081,36.255 25.625,36.25C11.358,36.25 -0.25,24.642 -0.25,10.375C-0.254,7.919 0.635,5.546 2.253,3.698C3.871,1.85 6.105,0.655 8.54,0.334C9.156,0.259 9.78,0.385 10.318,0.693C10.856,1.002 11.28,1.476 11.527,2.045L15.322,10.517L15.322,10.539C15.511,10.974 15.589,11.45 15.549,11.923C15.509,12.396 15.353,12.852 15.094,13.25C15.061,13.299 15.027,13.344 14.991,13.388L11.25,17.823C12.596,20.558 15.456,23.393 18.227,24.743L22.601,21.022C22.644,20.986 22.689,20.952 22.736,20.921C23.133,20.656 23.591,20.494 24.067,20.45C24.543,20.406 25.022,20.481 25.462,20.669L25.485,20.68L33.95,24.473C34.52,24.719 34.995,25.143 35.305,25.681C35.614,26.22 35.741,26.843 35.666,27.46Z" fill="#004A93"/>
</svg>
